# xmcd CD database file
#
# Track frame offsets:
#	150
#	20152
#	40560
#	61847
#	77880
#	92588
#	114025
#	135908
#	156420
#	186653
#
# Disc length: 2770 seconds
#
# Revision: 0
# Processed by: cddbd v1.5.1PL2 Copyright (c) Steve Scherf et al.
# Submitted via: CDex 1.51
#
DISCID=780ad00a
DTITLE=サード・クラス - 愛くらら
DYEAR=2006
DGENRE=JPop
TTITLE0=年上想い
TTITLE1=愛くらら
TTITLE2=マッハ
TTITLE3=光をみせて
TTITLE4=いやだな
TTITLE5=悪意のない言葉
TTITLE6=ある一日
TTITLE7=テストの前
TTITLE8=そこどけ
TTITLE9=駒場北四丁目
EXTD=YEAR: 2006
EXTT0=
EXTT1=
EXTT2=
EXTT3=
EXTT4=
EXTT5=
EXTT6=
EXTT7=
EXTT8=
EXTT9=
PLAYORDER=
